<svg width="800" height="600" viewBox="0 0 800 600" xmlns="http://www.w3.org/2000/svg">
  <style>
    :root {
      --primary: #4361ee;
      --secondary: #3a0ca3;
      --accent: #4cc9f0;
      --light-bg: #f8f9fa;
      --dark-text: #2b2d42;
      --light-text: #ffffff;
      --stroke-color: #3a0ca3;
    }
    
    /* Dark mode adjustments */
    @media (prefers-color-scheme: dark) {
      :root {
        --primary: #4cc9f0;
        --secondary: #4895ef;
        --accent: #3a86ff;
        --light-bg: #1e1e1e;
        --dark-text: #f8f9fa;
        --stroke-color: #4cc9f0;
      }
    }
    
    .primary { fill: var(--primary); }
    .secondary { fill: var(--secondary); }
    .accent { fill: var(--accent); }
    .light-bg { fill: var(--light-bg); }
    .dark-text { fill: var(--dark-text); }
    .light-text { fill: var(--light-text); }
    .dark-stroke { stroke: var(--stroke-color); }
    
    .float {
      animation: floating 5s ease-in-out infinite;
    }
    
    .float-delay {
      animation: floating 6s ease-in-out 0.5s infinite;
    }
    
    .float-slow {
      animation: floating 7s ease-in-out 1s infinite;
    }
    
    .rotate {
      transform-origin: center;
      animation: rotating 12s linear infinite;
    }
    
    .pulse {
      animation: pulsing 3s ease-in-out infinite;
    }
    
    @keyframes floating {
      0%, 100% { transform: translateY(0px); }
      50% { transform: translateY(-20px); }
    }
    
    @keyframes rotating {
      from { transform: rotate(0deg); }
      to { transform: rotate(360deg); }
    }
    
    @keyframes pulsing {
      0%, 100% { opacity: 0.8; }
      50% { opacity: 1; }
    }
  </style>

  <!-- Background Elements with better contrast -->
  <circle cx="400" cy="300" r="250" class="light-bg" opacity="0.2"/>
  <circle cx="400" cy="300" r="200" class="primary" opacity="0.15"/>
  
  <!-- Decorative Circuit Patterns with adjustable stroke -->
  <path d="M150,100 L220,100 L220,150 L280,150 L280,200 L350,200" 
        class="dark-stroke" stroke-width="2.5" fill="none" stroke-dasharray="5,5" opacity="0.7"/>
  <path d="M650,400 L580,400 L580,350 L520,350 L520,300 L450,300" 
        class="dark-stroke" stroke-width="2.5" fill="none" stroke-dasharray="5,5" opacity="0.7"/>
  <path d="M400,50 L400,120 L450,120 L450,170 L400,170 L400,220" 
        class="dark-stroke" stroke-width="2.5" fill="none" stroke-dasharray="5,5" opacity="0.7"/>
        
  <!-- Main Tech Elements -->
  
  <!-- Central Device Stack -->
  <g class="float">
    <!-- Laptop Base - increased opacity and border for dark mode -->
    <rect x="300" y="320" width="200" height="130" rx="10" class="secondary" opacity="0.9"/>
    <rect x="310" y="330" width="180" height="110" rx="5" class="accent" opacity="0.4" stroke="var(--accent)" stroke-width="1"/>
    
    <!-- Laptop Screen -->
    <path d="M310 320 L490 320 L490 230 L310 230 Z" class="secondary" opacity="0.9"/>
    <rect x="320" y="240" width="160" height="70" class="accent" opacity="0.4" stroke="var(--accent)" stroke-width="1"/>
    
    <!-- Code on Screen - higher contrast for dark mode -->
    <rect x="330" y="250" width="140" height="5" rx="2" class="light-text" opacity="0.9"/>
    <rect x="330" y="265" width="110" height="5" rx="2" class="light-text" opacity="0.9"/>
    <rect x="330" y="280" width="130" height="5" rx="2" class="light-text" opacity="0.9"/>
    <rect x="330" y="295" width="90" height="5" rx="2" class="light-text" opacity="0.9"/>
    
    <!-- Tablet -->
    <rect x="350" y="180" width="100" height="140" rx="10" class="primary" opacity="0.9" stroke="var(--primary)" stroke-width="1.5"/>
    <rect x="360" y="190" width="80" height="110" rx="5" class="light-bg" opacity="0.4" stroke="var(--primary)" stroke-width="0.5"/>
    
    <!-- Phone -->
    <rect x="375" y="130" width="50" height="90" rx="8" class="dark-text" opacity="0.9" stroke="var(--accent)" stroke-width="1.5"/>
    <rect x="380" y="140" width="40" height="65" rx="4" class="accent" opacity="0.6"/>
  </g>
  
  <!-- Floating Tech Elements -->
  <g class="float-delay">
    <!-- Data Block Left -->
    <rect x="180" y="180" width="70" height="70" rx="10" class="primary" opacity="0.8" stroke="var(--primary)" stroke-width="1.5"/>
    <rect x="190" y="190" width="50" height="8" rx="2" class="light-text" opacity="0.9"/>
    <rect x="190" y="210" width="40" height="8" rx="2" class="light-text" opacity="0.9"/>
    <rect x="190" y="230" width="45" height="8" rx="2" class="light-text" opacity="0.9"/>
  </g>
  
  <g class="float-slow">
    <!-- Data Block Right -->
    <rect x="550" y="270" width="70" height="70" rx="35" class="secondary" opacity="0.8" stroke="var(--secondary)" stroke-width="1.5"/>
    <rect x="565" y="290" width="40" height="6" rx="2" class="light-text" opacity="0.9"/>
    <rect x="565" y="306" width="30" height="6" rx="2" class="light-text" opacity="0.9"/>
    <rect x="565" y="322" width="35" height="6" rx="2" class="light-text" opacity="0.9"/>
  </g>
  
  <!-- Rotating Gear -->
  <g class="rotate">
    <circle cx="230" cy="400" r="40" class="primary" opacity="0.3" stroke="var(--primary)" stroke-width="1.5"/>
    <circle cx="230" cy="400" r="25" class="accent" opacity="0.6" stroke="var(--accent)" stroke-width="2"/>
    <path d="M230,370 L235,380 L245,380 L240,390 L245,400 L235,400 L230,410 L225,400 L215,400 L220,390 L215,380 L225,380 Z" 
          class="primary" opacity="0.9" stroke="var(--primary)" stroke-width="1"/>
  </g>
  
  <!-- Cloud Element -->
  <g class="float-slow">
    <path d="M550,150 Q580,130 610,150 Q640,130 640,160 Q660,160 655,180 Q670,195 650,210 Q650,230 630,225 Q610,240 590,220 Q570,230 560,210 Q530,210 540,185 Q520,170 550,150" 
          class="accent" opacity="0.4" stroke="var(--accent)" stroke-width="2"/>
    
    <!-- Server/Cloud Icons -->
    <rect x="575" y="170" width="30" height="30" rx="4" class="primary" opacity="0.9" stroke="var(--primary)" stroke-width="1"/>
    <rect x="580" y="175" width="20" height="2" rx="1" class="light-text"/>
    <rect x="580" y="180" width="15" height="2" rx="1" class="light-text"/>
    <rect x="580" y="185" width="18" height="2" rx="1" class="light-text"/>
  </g>
  
  <!-- Connection Lines with better visibility -->
  <path d="M400,300 C470,280 520,350 550,270" class="dark-stroke" stroke-width="2.5" fill="none" opacity="0.6"/>
  <path d="M400,300 C330,320 280,250 250,330" class="dark-stroke" stroke-width="2.5" fill="none" opacity="0.6"/>
  <path d="M400,180 C430,160 500,180 550,170" class="dark-stroke" stroke-width="2.5" fill="none" opacity="0.6"/>
  
  <!-- Small Tech Elements -->
  <circle cx="250" cy="330" r="20" class="secondary pulse" opacity="0.7" stroke="var(--secondary)" stroke-width="1.5"/>
  <rect x="240" y="328" width="20" height="4" rx="1" class="light-text" opacity="0.9"/>
  <rect x="248" y="320" width="4" height="20" rx="1" class="light-text" opacity="0.9"/>
  
  <circle cx="550" cy="170" r="15" class="primary pulse" opacity="0.7" stroke="var(--primary)" stroke-width="1.5"/>
  <path d="M550,165 L550,175 M545,170 L555,170" stroke="var(--light-text)" stroke-width="2"/>
  
  <circle cx="550" cy="270" r="17" class="accent pulse" opacity="0.7" stroke="var(--accent)" stroke-width="1.5"/>
  <rect x="542" y="267" width="16" height="6" rx="2" class="light-text" opacity="0.9"/>

  <!-- Abstract Binary/Data Elements -->
  <text x="170" y="430" class="dark-text" opacity="0.6" font-family="monospace" font-size="10">
    10101010101011010
  </text>
  <text x="170" y="445" class="dark-text" opacity="0.6" font-family="monospace" font-size="10">
    01010111001010101
  </text>
  <text x="530" y="120" class="dark-text" opacity="0.6" font-family="monospace" font-size="10">
    01010111001010101
  </text>
  <text x="530" y="135" class="dark-text" opacity="0.6" font-family="monospace" font-size="10">
    10101010101011010
  </text>
</svg>