<svg xmlns="http://www.w3.org/2000/svg" xmlns:xlink="http://www.w3.org/1999/xlink" width="500" zoomAndPan="magnify" viewBox="0 0 375 374.999991" height="500" preserveAspectRatio="xMidYMid meet" version="1.0"><defs><clipPath id="fb0efab642"><path d="M 4.074219 91 L 221 91 L 221 354 L 4.074219 354 Z M 4.074219 91 " clip-rule="nonzero"/></clipPath><clipPath id="7ad803ebba"><path d="M 118 158 L 370.824219 158 L 370.824219 375 L 118 375 Z M 118 158 " clip-rule="nonzero"/></clipPath></defs><g clip-path="url(#fb0efab642)"><path fill="#2ab4e8" d="M 47.679688 293.425781 L 82.320312 313.457031 L 64.152344 323.957031 L 54.945312 318.625 C 67.460938 311.4375 64.796875 312.972656 64.796875 312.972656 L 39.363281 298.273438 L 29.511719 303.925781 L 4.074219 318.625 L 64.152344 353.355469 L 107.753906 328.15625 L 133.191406 313.457031 L 73.113281 278.726562 L 73.113281 146.753906 L 91.523438 136.09375 L 91.523438 268.144531 L 151.601562 302.875 L 177.035156 288.175781 L 220.636719 262.976562 L 160.5625 228.246094 L 128.585938 246.742188 L 154.023438 261.441406 L 160.5625 257.644531 L 169.769531 262.976562 L 151.601562 273.476562 L 116.960938 253.445312 L 116.960938 91.992188 L 47.597656 132.054688 L 47.597656 293.425781 Z M 47.679688 293.425781 " fill-opacity="1" fill-rule="evenodd"/></g><g clip-path="url(#7ad803ebba)"><path fill="#2ab4e8" d="M 327.222656 293.425781 L 327.222656 253.367188 L 345.390625 263.863281 L 345.390625 274.445312 C 332.875 267.257812 335.539062 268.792969 335.539062 268.792969 L 335.539062 298.191406 L 345.390625 303.84375 L 370.824219 318.542969 L 370.824219 249.085938 L 327.222656 223.886719 L 301.789062 209.1875 L 301.789062 278.644531 L 187.53125 344.632812 L 169.121094 333.972656 L 187.53125 323.308594 L 283.378906 267.984375 L 283.378906 198.523438 L 257.941406 183.824219 L 214.339844 158.625 L 214.339844 228.085938 L 246.316406 246.582031 L 246.316406 217.183594 L 239.773438 213.386719 L 239.773438 202.804688 L 257.941406 213.304688 L 257.941406 253.367188 L 187.53125 293.992188 L 162.097656 308.691406 L 143.6875 319.351562 L 118.25 334.050781 L 187.613281 374.113281 L 327.382812 293.425781 Z M 327.222656 293.425781 " fill-opacity="1" fill-rule="evenodd"/></g><path fill="#d2d3d5" d="M 127.375 35.617188 L 152.8125 20.917969 L 162.015625 15.585938 L 162.097656 15.507812 L 163.632812 14.617188 L 163.792969 14.539062 L 166.539062 12.921875 L 167.910156 12.113281 L 169.203125 11.386719 L 170.414062 10.660156 L 171.625 10.015625 L 172.753906 9.367188 L 173.804688 8.722656 L 174.855469 8.15625 L 175.824219 7.589844 L 176.710938 7.027344 L 177.601562 6.542969 L 178.40625 6.058594 L 179.214844 5.574219 L 179.941406 5.167969 L 180.585938 4.765625 L 181.234375 4.359375 L 181.800781 4.039062 L 182.363281 3.714844 L 182.847656 3.390625 L 183.816406 2.90625 L 184.222656 2.664062 L 184.625 2.421875 L 184.949219 2.261719 L 185.269531 2.097656 L 185.59375 1.9375 L 185.835938 1.777344 L 186.078125 1.613281 L 186.320312 1.453125 L 186.480469 1.371094 L 186.644531 1.292969 L 186.964844 1.128906 L 187.046875 1.050781 L 187.128906 0.96875 L 187.207031 0.886719 L 187.371094 0.886719 L 187.371094 41.59375 L 161.933594 56.292969 C 161.933594 56.292969 161.933594 59.363281 161.933594 44.988281 L 152.730469 50.316406 L 152.730469 71.316406 L 187.371094 51.285156 L 327.140625 131.972656 L 327.140625 212.011719 L 301.707031 197.3125 L 283.296875 186.652344 L 257.863281 171.953125 L 214.90625 147.15625 L 187.449219 131.328125 L 178.246094 136.65625 L 159.917969 147.238281 L 152.8125 151.355469 L 152.8125 172.355469 L 162.015625 167.027344 L 162.015625 159.515625 L 183.253906 147.238281 L 187.449219 144.816406 L 187.449219 181.96875 L 152.8125 201.996094 L 152.730469 202.078125 L 150.792969 203.210938 L 149.824219 203.773438 L 146.917969 205.472656 L 145.949219 206.035156 L 144.976562 206.601562 L 144.007812 207.167969 L 143.039062 207.730469 L 140.132812 209.429688 L 139.164062 209.992188 L 136.257812 211.691406 L 135.289062 212.253906 L 132.382812 213.953125 L 131.414062 214.515625 L 129.476562 215.648438 L 128.507812 216.210938 L 127.539062 216.777344 L 126.566406 217.34375 L 126.566406 138.351562 L 152.003906 123.652344 L 186.644531 103.625 L 246.71875 138.351562 L 265.046875 148.933594 L 282.410156 158.949219 L 300.820312 169.609375 L 300.820312 148.289062 L 186.5625 82.300781 L 126.488281 117.03125 L 126.488281 37.234375 Z M 127.375 35.617188 " fill-opacity="1" fill-rule="evenodd"/></svg>