<svg xmlns="http://www.w3.org/2000/svg" viewBox="0 0 800 600" fill="none">
  <defs>
    <linearGradient id="primaryGradient" x1="0%" y1="0%" x2="100%" y2="100%">
      <stop offset="0%" stop-color="#4361EE" />
      <stop offset="100%" stop-color="#4CC9F0" />
    </linearGradient>
    <linearGradient id="secondaryGradient" x1="100%" y1="0%" x2="0%" y2="100%">
      <stop offset="0%" stop-color="#4CC9F0" />
      <stop offset="50%" stop-color="#4361EE" />
      <stop offset="100%" stop-color="#3A0CA3" />
    </linearGradient>
    <filter id="glow" x="-50%" y="-50%" width="200%" height="200%">
      <feGaussianBlur stdDeviation="10" result="blur" />
      <feComposite in="SourceGraphic" in2="blur" operator="over" />
    </filter>
  </defs>
  
  <!-- Background elements -->
  <circle cx="400" cy="300" r="200" fill="url(#primaryGradient)" opacity="0.05" />
  <circle cx="400" cy="300" r="300" fill="url(#secondaryGradient)" opacity="0.03" />
  
  <!-- Decorative network lines -->
  <path d="M200,200 Q400,100 600,200" stroke="url(#primaryGradient)" stroke-width="2" fill="none" />
  <path d="M200,400 Q400,500 600,400" stroke="url(#primaryGradient)" stroke-width="2" fill="none" />
  <path d="M200,200 L200,400" stroke="url(#secondaryGradient)" stroke-width="2" fill="none" />
  <path d="M600,200 L600,400" stroke="url(#secondaryGradient)" stroke-width="2" fill="none" />
  
  <!-- Connection points -->
  <circle cx="200" cy="200" r="8" fill="url(#primaryGradient)" />
  <circle cx="200" cy="400" r="8" fill="url(#primaryGradient)" />
  <circle cx="600" cy="200" r="8" fill="url(#primaryGradient)" />
  <circle cx="600" cy="400" r="8" fill="url(#primaryGradient)" />
  
  <!-- Central elements -->
  <circle cx="400" cy="300" r="80" fill="white" opacity="0.9" />
  <circle cx="400" cy="300" r="65" fill="url(#primaryGradient)" opacity="0.8" />
  
  <!-- Central icon -->
  <g transform="translate(355, 255)" fill="white">
    <path d="M45,0 L90,45 L45,90 L0,45 Z" />
    <circle cx="45" cy="45" r="20" />
  </g>
  
  <!-- Small floating elements -->
  <circle cx="280" cy="240" r="12" fill="white" opacity="0.7" />
  <circle cx="520" cy="240" r="12" fill="white" opacity="0.7" />
  <circle cx="280" cy="360" r="12" fill="white" opacity="0.7" />
  <circle cx="520" cy="360" r="12" fill="white" opacity="0.7" />
  
  <!-- Small connecting lines -->
  <line x1="280" y1="240" x2="400" y2="300" stroke="white" stroke-width="1.5" opacity="0.5" />
  <line x1="520" y1="240" x2="400" y2="300" stroke="white" stroke-width="1.5" opacity="0.5" />
  <line x1="280" y1="360" x2="400" y2="300" stroke="white" stroke-width="1.5" opacity="0.5" />
  <line x1="520" y1="360" x2="400" y2="300" stroke="white" stroke-width="1.5" opacity="0.5" />
  
  <!-- Subtle pulsing circles -->
  <circle cx="400" cy="300" r="120" stroke="white" stroke-width="1" fill="none" opacity="0.2">
    <animate attributeName="r" values="120;150;120" dur="4s" repeatCount="indefinite" />
    <animate attributeName="opacity" values="0.2;0.1;0.2" dur="4s" repeatCount="indefinite" />
  </circle>
  
  <circle cx="400" cy="300" r="180" stroke="white" stroke-width="1" fill="none" opacity="0.1">
    <animate attributeName="r" values="180;220;180" dur="6s" repeatCount="indefinite" />
    <animate attributeName="opacity" values="0.1;0.05;0.1" dur="6s" repeatCount="indefinite" />
  </circle>
</svg>